<svg xmlns="http://www.w3.org/2000/svg" xmlns:xlink="http://www.w3.org/1999/xlink" width="600" height="400" viewBox="0 0 2400 1600">
<defs>
  <clipPath id="clip760">
    <rect x="0" y="0" width="2400" height="1600"></rect>
  </clipPath>
</defs>
<path clip-path="url(#clip760)" d="M0 1600 L2400 1600 L2400 0 L0 0  Z" fill="#ffffff" fill-rule="evenodd" fill-opacity="1"></path>
<defs>
  <clipPath id="clip761">
    <rect x="480" y="0" width="1681" height="1600"></rect>
  </clipPath>
</defs>
<path clip-path="url(#clip760)" d="M222.69 1423.18 L2352.76 1423.18 L2352.76 47.2441 L222.69 47.2441  Z" fill="#ffffff" fill-rule="evenodd" fill-opacity="1"></path>
<defs>
  <clipPath id="clip762">
    <rect x="222" y="47" width="2131" height="1377"></rect>
  </clipPath>
</defs>
<polyline clip-path="url(#clip762)" style="stroke:#000000; stroke-linecap:round; stroke-linejoin:round; stroke-width:2; stroke-opacity:0.1; fill:none" points="617.891,1423.18 617.891,47.2441 "></polyline>
<polyline clip-path="url(#clip762)" style="stroke:#000000; stroke-linecap:round; stroke-linejoin:round; stroke-width:2; stroke-opacity:0.1; fill:none" points="1176.08,1423.18 1176.08,47.2441 "></polyline>
<polyline clip-path="url(#clip762)" style="stroke:#000000; stroke-linecap:round; stroke-linejoin:round; stroke-width:2; stroke-opacity:0.1; fill:none" points="1734.28,1423.18 1734.28,47.2441 "></polyline>
<polyline clip-path="url(#clip762)" style="stroke:#000000; stroke-linecap:round; stroke-linejoin:round; stroke-width:2; stroke-opacity:0.1; fill:none" points="2292.47,1423.18 2292.47,47.2441 "></polyline>
<polyline clip-path="url(#clip760)" style="stroke:#000000; stroke-linecap:round; stroke-linejoin:round; stroke-width:4; stroke-opacity:1; fill:none" points="222.69,1423.18 2352.76,1423.18 "></polyline>
<polyline clip-path="url(#clip760)" style="stroke:#000000; stroke-linecap:round; stroke-linejoin:round; stroke-width:4; stroke-opacity:1; fill:none" points="617.891,1423.18 617.891,1404.28 "></polyline>
<polyline clip-path="url(#clip760)" style="stroke:#000000; stroke-linecap:round; stroke-linejoin:round; stroke-width:4; stroke-opacity:1; fill:none" points="1176.08,1423.18 1176.08,1404.28 "></polyline>
<polyline clip-path="url(#clip760)" style="stroke:#000000; stroke-linecap:round; stroke-linejoin:round; stroke-width:4; stroke-opacity:1; fill:none" points="1734.28,1423.18 1734.28,1404.28 "></polyline>
<polyline clip-path="url(#clip760)" style="stroke:#000000; stroke-linecap:round; stroke-linejoin:round; stroke-width:4; stroke-opacity:1; fill:none" points="2292.47,1423.18 2292.47,1404.28 "></polyline>
<path clip-path="url(#clip760)" d="M608.169 1451.02 L626.525 1451.02 L626.525 1454.96 L612.451 1454.96 L612.451 1463.43 Q613.47 1463.08 614.488 1462.92 Q615.507 1462.73 616.525 1462.73 Q622.312 1462.73 625.692 1465.9 Q629.072 1469.08 629.072 1474.49 Q629.072 1480.07 625.599 1483.17 Q622.127 1486.25 615.808 1486.25 Q613.632 1486.25 611.363 1485.88 Q609.118 1485.51 606.711 1484.77 L606.711 1480.07 Q608.794 1481.2 611.016 1481.76 Q613.238 1482.32 615.715 1482.32 Q619.72 1482.32 622.058 1480.21 Q624.396 1478.1 624.396 1474.49 Q624.396 1470.88 622.058 1468.77 Q619.72 1466.67 615.715 1466.67 Q613.84 1466.67 611.965 1467.08 Q610.113 1467.5 608.169 1468.38 L608.169 1451.02 Z" fill="#000000" fill-rule="nonzero" fill-opacity="1"></path><path clip-path="url(#clip760)" d="M1150.77 1481.64 L1158.41 1481.64 L1158.41 1455.28 L1150.1 1456.95 L1150.1 1452.69 L1158.36 1451.02 L1163.04 1451.02 L1163.04 1481.64 L1170.68 1481.64 L1170.68 1485.58 L1150.77 1485.58 L1150.77 1481.64 Z" fill="#000000" fill-rule="nonzero" fill-opacity="1"></path><path clip-path="url(#clip760)" d="M1190.12 1454.1 Q1186.51 1454.1 1184.68 1457.66 Q1182.88 1461.2 1182.88 1468.33 Q1182.88 1475.44 1184.68 1479.01 Q1186.51 1482.55 1190.12 1482.55 Q1193.76 1482.55 1195.56 1479.01 Q1197.39 1475.44 1197.39 1468.33 Q1197.39 1461.2 1195.56 1457.66 Q1193.76 1454.1 1190.12 1454.1 M1190.12 1450.39 Q1195.93 1450.39 1198.99 1455 Q1202.07 1459.58 1202.07 1468.33 Q1202.07 1477.06 1198.99 1481.67 Q1195.93 1486.25 1190.12 1486.25 Q1184.31 1486.25 1181.23 1481.67 Q1178.18 1477.06 1178.18 1468.33 Q1178.18 1459.58 1181.23 1455 Q1184.31 1450.39 1190.12 1450.39 Z" fill="#000000" fill-rule="nonzero" fill-opacity="1"></path><path clip-path="url(#clip760)" d="M1709.46 1481.64 L1717.1 1481.64 L1717.1 1455.28 L1708.79 1456.95 L1708.79 1452.69 L1717.06 1451.02 L1721.73 1451.02 L1721.73 1481.64 L1729.37 1481.64 L1729.37 1485.58 L1709.46 1485.58 L1709.46 1481.64 Z" fill="#000000" fill-rule="nonzero" fill-opacity="1"></path><path clip-path="url(#clip760)" d="M1738.86 1451.02 L1757.22 1451.02 L1757.22 1454.96 L1743.14 1454.96 L1743.14 1463.43 Q1744.16 1463.08 1745.18 1462.92 Q1746.2 1462.73 1747.22 1462.73 Q1753 1462.73 1756.38 1465.9 Q1759.76 1469.08 1759.76 1474.49 Q1759.76 1480.07 1756.29 1483.17 Q1752.82 1486.25 1746.5 1486.25 Q1744.32 1486.25 1742.06 1485.88 Q1739.81 1485.51 1737.4 1484.77 L1737.4 1480.07 Q1739.49 1481.2 1741.71 1481.76 Q1743.93 1482.32 1746.41 1482.32 Q1750.41 1482.32 1752.75 1480.21 Q1755.09 1478.1 1755.09 1474.49 Q1755.09 1470.88 1752.75 1468.77 Q1750.41 1466.67 1746.41 1466.67 Q1744.53 1466.67 1742.66 1467.08 Q1740.81 1467.5 1738.86 1468.38 L1738.86 1451.02 Z" fill="#000000" fill-rule="nonzero" fill-opacity="1"></path><path clip-path="url(#clip760)" d="M2271.24 1481.64 L2287.56 1481.64 L2287.56 1485.58 L2265.62 1485.58 L2265.62 1481.64 Q2268.28 1478.89 2272.86 1474.26 Q2277.47 1469.61 2278.65 1468.27 Q2280.9 1465.74 2281.78 1464.01 Q2282.68 1462.25 2282.68 1460.56 Q2282.68 1457.8 2280.73 1456.07 Q2278.81 1454.33 2275.71 1454.33 Q2273.51 1454.33 2271.06 1455.09 Q2268.63 1455.86 2265.85 1457.41 L2265.85 1452.69 Q2268.67 1451.55 2271.13 1450.97 Q2273.58 1450.39 2275.62 1450.39 Q2280.99 1450.39 2284.18 1453.08 Q2287.38 1455.77 2287.38 1460.26 Q2287.38 1462.39 2286.57 1464.31 Q2285.78 1466.2 2283.67 1468.8 Q2283.1 1469.47 2279.99 1472.69 Q2276.89 1475.88 2271.24 1481.64 Z" fill="#000000" fill-rule="nonzero" fill-opacity="1"></path><path clip-path="url(#clip760)" d="M2307.38 1454.1 Q2303.77 1454.1 2301.94 1457.66 Q2300.13 1461.2 2300.13 1468.33 Q2300.13 1475.44 2301.94 1479.01 Q2303.77 1482.55 2307.38 1482.55 Q2311.01 1482.55 2312.82 1479.01 Q2314.65 1475.44 2314.65 1468.33 Q2314.65 1461.2 2312.82 1457.66 Q2311.01 1454.1 2307.38 1454.1 M2307.38 1450.39 Q2313.19 1450.39 2316.24 1455 Q2319.32 1459.58 2319.32 1468.33 Q2319.32 1477.06 2316.24 1481.67 Q2313.19 1486.25 2307.38 1486.25 Q2301.57 1486.25 2298.49 1481.67 Q2295.43 1477.06 2295.43 1468.33 Q2295.43 1459.58 2298.49 1455 Q2301.57 1450.39 2307.38 1450.39 Z" fill="#000000" fill-rule="nonzero" fill-opacity="1"></path><path clip-path="url(#clip760)" d="M826.989 1520.52 L835.647 1520.52 L856.717 1560.28 L856.717 1520.52 L862.955 1520.52 L862.955 1568.04 L854.298 1568.04 L833.228 1528.29 L833.228 1568.04 L826.989 1568.04 L826.989 1520.52 Z" fill="#000000" fill-rule="nonzero" fill-opacity="1"></path><path clip-path="url(#clip760)" d="M874.891 1553.98 L874.891 1532.4 L880.748 1532.4 L880.748 1553.75 Q880.748 1558.81 882.721 1561.36 Q884.694 1563.87 888.641 1563.87 Q893.384 1563.87 896.121 1560.85 Q898.89 1557.83 898.89 1552.61 L898.89 1532.4 L904.746 1532.4 L904.746 1568.04 L898.89 1568.04 L898.89 1562.57 Q896.757 1565.82 893.925 1567.41 Q891.124 1568.97 887.4 1568.97 Q881.257 1568.97 878.074 1565.15 Q874.891 1561.33 874.891 1553.98 M889.628 1531.54 L889.628 1531.54 M893.988 1515.91 L900.322 1515.91 L889.946 1527.88 L885.076 1527.88 L893.988 1515.91 Z" fill="#000000" fill-rule="nonzero" fill-opacity="1"></path><path clip-path="url(#clip760)" d="M944.564 1539.24 Q946.76 1535.29 949.815 1533.41 Q952.871 1531.54 957.009 1531.54 Q962.579 1531.54 965.602 1535.45 Q968.626 1539.33 968.626 1546.53 L968.626 1568.04 L962.738 1568.04 L962.738 1546.72 Q962.738 1541.59 960.924 1539.11 Q959.109 1536.63 955.385 1536.63 Q950.834 1536.63 948.192 1539.65 Q945.55 1542.68 945.55 1547.9 L945.55 1568.04 L939.662 1568.04 L939.662 1546.72 Q939.662 1541.56 937.848 1539.11 Q936.034 1536.63 932.246 1536.63 Q927.758 1536.63 925.117 1539.68 Q922.475 1542.71 922.475 1547.9 L922.475 1568.04 L916.587 1568.04 L916.587 1532.4 L922.475 1532.4 L922.475 1537.93 Q924.48 1534.66 927.281 1533.1 Q930.082 1531.54 933.933 1531.54 Q937.816 1531.54 940.522 1533.51 Q943.259 1535.48 944.564 1539.24 Z" fill="#000000" fill-rule="nonzero" fill-opacity="1"></path><path clip-path="url(#clip760)" d="M1010.8 1548.76 L1010.8 1551.62 L983.872 1551.62 Q984.254 1557.67 987.5 1560.85 Q990.779 1564 996.603 1564 Q999.977 1564 1003.13 1563.17 Q1006.31 1562.35 1009.43 1560.69 L1009.43 1566.23 Q1006.28 1567.57 1002.97 1568.27 Q999.659 1568.97 996.253 1568.97 Q987.723 1568.97 982.726 1564 Q977.761 1559.04 977.761 1550.57 Q977.761 1541.82 982.472 1536.69 Q987.214 1531.54 995.235 1531.54 Q1002.43 1531.54 1006.6 1536.18 Q1010.8 1540.8 1010.8 1548.76 M1004.94 1547.04 Q1004.88 1542.23 1002.24 1539.37 Q999.627 1536.5 995.298 1536.5 Q990.397 1536.5 987.437 1539.27 Q984.509 1542.04 984.063 1547.07 L1004.94 1547.04 Z" fill="#000000" fill-rule="nonzero" fill-opacity="1"></path><path clip-path="url(#clip760)" d="M1041.07 1537.87 Q1040.08 1537.3 1038.9 1537.04 Q1037.76 1536.76 1036.36 1536.76 Q1031.39 1536.76 1028.72 1540 Q1026.08 1543.22 1026.08 1549.27 L1026.08 1568.04 L1020.19 1568.04 L1020.19 1532.4 L1026.08 1532.4 L1026.08 1537.93 Q1027.92 1534.69 1030.88 1533.13 Q1033.84 1531.54 1038.08 1531.54 Q1038.68 1531.54 1039.41 1531.63 Q1040.14 1531.7 1041.04 1531.85 L1041.07 1537.87 Z" fill="#000000" fill-rule="nonzero" fill-opacity="1"></path><path clip-path="url(#clip760)" d="M1059.59 1536.5 Q1054.88 1536.5 1052.14 1540.19 Q1049.41 1543.85 1049.41 1550.25 Q1049.41 1556.65 1052.11 1560.34 Q1054.85 1564 1059.59 1564 Q1064.27 1564 1067.01 1560.31 Q1069.75 1556.62 1069.75 1550.25 Q1069.75 1543.92 1067.01 1540.23 Q1064.27 1536.5 1059.59 1536.5 M1059.59 1531.54 Q1067.23 1531.54 1071.59 1536.5 Q1075.95 1541.47 1075.95 1550.25 Q1075.95 1559 1071.59 1564 Q1067.23 1568.97 1059.59 1568.97 Q1051.92 1568.97 1047.56 1564 Q1043.23 1559 1043.23 1550.25 Q1043.23 1541.47 1047.56 1536.5 Q1051.92 1531.54 1059.59 1531.54 Z" fill="#000000" fill-rule="nonzero" fill-opacity="1"></path><path clip-path="url(#clip760)" d="M1129.84 1537.81 L1129.84 1518.52 L1135.69 1518.52 L1135.69 1568.04 L1129.84 1568.04 L1129.84 1562.7 Q1127.99 1565.88 1125.16 1567.44 Q1122.36 1568.97 1118.41 1568.97 Q1111.95 1568.97 1107.88 1563.81 Q1103.83 1558.65 1103.83 1550.25 Q1103.83 1541.85 1107.88 1536.69 Q1111.95 1531.54 1118.41 1531.54 Q1122.36 1531.54 1125.16 1533.1 Q1127.99 1534.62 1129.84 1537.81 M1109.88 1550.25 Q1109.88 1556.71 1112.52 1560.4 Q1115.2 1564.07 1119.84 1564.07 Q1124.49 1564.07 1127.16 1560.4 Q1129.84 1556.71 1129.84 1550.25 Q1129.84 1543.79 1127.16 1540.13 Q1124.49 1536.44 1119.84 1536.44 Q1115.2 1536.44 1112.52 1540.13 Q1109.88 1543.79 1109.88 1550.25 Z" fill="#000000" fill-rule="nonzero" fill-opacity="1"></path><path clip-path="url(#clip760)" d="M1178.25 1548.76 L1178.25 1551.62 L1151.32 1551.62 Q1151.7 1557.67 1154.95 1560.85 Q1158.23 1564 1164.05 1564 Q1167.43 1564 1170.58 1563.17 Q1173.76 1562.35 1176.88 1560.69 L1176.88 1566.23 Q1173.73 1567.57 1170.42 1568.27 Q1167.11 1568.97 1163.7 1568.97 Q1155.17 1568.97 1150.18 1564 Q1145.21 1559.04 1145.21 1550.57 Q1145.21 1541.82 1149.92 1536.69 Q1154.66 1531.54 1162.68 1531.54 Q1169.88 1531.54 1174.05 1536.18 Q1178.25 1540.8 1178.25 1548.76 M1172.39 1547.04 Q1172.33 1542.23 1169.69 1539.37 Q1167.08 1536.5 1162.75 1536.5 Q1157.85 1536.5 1154.89 1539.27 Q1151.96 1542.04 1151.51 1547.07 L1172.39 1547.04 Z" fill="#000000" fill-rule="nonzero" fill-opacity="1"></path><path clip-path="url(#clip760)" d="M1239.07 1548.76 L1239.07 1551.62 L1212.15 1551.62 Q1212.53 1557.67 1215.77 1560.85 Q1219.05 1564 1224.88 1564 Q1228.25 1564 1231.4 1563.17 Q1234.59 1562.35 1237.7 1560.69 L1237.7 1566.23 Q1234.55 1567.57 1231.24 1568.27 Q1227.93 1568.97 1224.53 1568.97 Q1216 1568.97 1211 1564 Q1206.04 1559.04 1206.04 1550.57 Q1206.04 1541.82 1210.75 1536.69 Q1215.49 1531.54 1223.51 1531.54 Q1230.7 1531.54 1234.87 1536.18 Q1239.07 1540.8 1239.07 1548.76 M1233.22 1547.04 Q1233.15 1542.23 1230.51 1539.37 Q1227.9 1536.5 1223.57 1536.5 Q1218.67 1536.5 1215.71 1539.27 Q1212.78 1542.04 1212.34 1547.07 L1233.22 1547.04 Z" fill="#000000" fill-rule="nonzero" fill-opacity="1"></path><path clip-path="url(#clip760)" d="M1248.69 1518.52 L1254.54 1518.52 L1254.54 1568.04 L1248.69 1568.04 L1248.69 1518.52 Z" fill="#000000" fill-rule="nonzero" fill-opacity="1"></path><path clip-path="url(#clip760)" d="M1297.29 1548.76 L1297.29 1551.62 L1270.36 1551.62 Q1270.74 1557.67 1273.99 1560.85 Q1277.27 1564 1283.09 1564 Q1286.47 1564 1289.62 1563.17 Q1292.8 1562.35 1295.92 1560.69 L1295.92 1566.23 Q1292.77 1567.57 1289.46 1568.27 Q1286.15 1568.97 1282.74 1568.97 Q1274.21 1568.97 1269.21 1564 Q1264.25 1559.04 1264.25 1550.57 Q1264.25 1541.82 1268.96 1536.69 Q1273.7 1531.54 1281.72 1531.54 Q1288.92 1531.54 1293.09 1536.18 Q1297.29 1540.8 1297.29 1548.76 M1291.43 1547.04 Q1291.37 1542.23 1288.73 1539.37 Q1286.12 1536.5 1281.79 1536.5 Q1276.89 1536.5 1273.93 1539.27 Q1271 1542.04 1270.55 1547.07 L1291.43 1547.04 Z" fill="#000000" fill-rule="nonzero" fill-opacity="1"></path><path clip-path="url(#clip760)" d="M1334.65 1539.24 Q1336.85 1535.29 1339.91 1533.41 Q1342.96 1531.54 1347.1 1531.54 Q1352.67 1531.54 1355.69 1535.45 Q1358.72 1539.33 1358.72 1546.53 L1358.72 1568.04 L1352.83 1568.04 L1352.83 1546.72 Q1352.83 1541.59 1351.01 1539.11 Q1349.2 1536.63 1345.48 1536.63 Q1340.92 1536.63 1338.28 1539.65 Q1335.64 1542.68 1335.64 1547.9 L1335.64 1568.04 L1329.75 1568.04 L1329.75 1546.72 Q1329.75 1541.56 1327.94 1539.11 Q1326.12 1536.63 1322.34 1536.63 Q1317.85 1536.63 1315.21 1539.68 Q1312.57 1542.71 1312.57 1547.9 L1312.57 1568.04 L1306.68 1568.04 L1306.68 1532.4 L1312.57 1532.4 L1312.57 1537.93 Q1314.57 1534.66 1317.37 1533.1 Q1320.17 1531.54 1324.02 1531.54 Q1327.91 1531.54 1330.61 1533.51 Q1333.35 1535.48 1334.65 1539.24 Z" fill="#000000" fill-rule="nonzero" fill-opacity="1"></path><path clip-path="url(#clip760)" d="M1400.89 1548.76 L1400.89 1551.62 L1373.96 1551.62 Q1374.34 1557.67 1377.59 1560.85 Q1380.87 1564 1386.69 1564 Q1390.07 1564 1393.22 1563.17 Q1396.4 1562.35 1399.52 1560.69 L1399.52 1566.23 Q1396.37 1567.57 1393.06 1568.27 Q1389.75 1568.97 1386.34 1568.97 Q1377.81 1568.97 1372.82 1564 Q1367.85 1559.04 1367.85 1550.57 Q1367.85 1541.82 1372.56 1536.69 Q1377.3 1531.54 1385.33 1531.54 Q1392.52 1531.54 1396.69 1536.18 Q1400.89 1540.8 1400.89 1548.76 M1395.03 1547.04 Q1394.97 1542.23 1392.33 1539.37 Q1389.72 1536.5 1385.39 1536.5 Q1380.49 1536.5 1377.53 1539.27 Q1374.6 1542.04 1374.15 1547.07 L1395.03 1547.04 Z" fill="#000000" fill-rule="nonzero" fill-opacity="1"></path><path clip-path="url(#clip760)" d="M1440.13 1546.53 L1440.13 1568.04 L1434.28 1568.04 L1434.28 1546.72 Q1434.28 1541.66 1432.3 1539.14 Q1430.33 1536.63 1426.38 1536.63 Q1421.64 1536.63 1418.9 1539.65 Q1416.17 1542.68 1416.17 1547.9 L1416.17 1568.04 L1410.28 1568.04 L1410.28 1532.4 L1416.17 1532.4 L1416.17 1537.93 Q1418.27 1534.72 1421.1 1533.13 Q1423.97 1531.54 1427.69 1531.54 Q1433.83 1531.54 1436.98 1535.36 Q1440.13 1539.14 1440.13 1546.53 Z" fill="#000000" fill-rule="nonzero" fill-opacity="1"></path><path clip-path="url(#clip760)" d="M1457.61 1522.27 L1457.61 1532.4 L1469.67 1532.4 L1469.67 1536.95 L1457.61 1536.95 L1457.61 1556.3 Q1457.61 1560.66 1458.79 1561.9 Q1460 1563.14 1463.66 1563.14 L1469.67 1563.14 L1469.67 1568.04 L1463.66 1568.04 Q1456.88 1568.04 1454.3 1565.53 Q1451.72 1562.98 1451.72 1556.3 L1451.72 1536.95 L1447.42 1536.95 L1447.42 1532.4 L1451.72 1532.4 L1451.72 1522.27 L1457.61 1522.27 Z" fill="#000000" fill-rule="nonzero" fill-opacity="1"></path><path clip-path="url(#clip760)" d="M1491.19 1536.5 Q1486.48 1536.5 1483.74 1540.19 Q1481 1543.85 1481 1550.25 Q1481 1556.65 1483.71 1560.34 Q1486.44 1564 1491.19 1564 Q1495.87 1564 1498.6 1560.31 Q1501.34 1556.62 1501.34 1550.25 Q1501.34 1543.92 1498.6 1540.23 Q1495.87 1536.5 1491.19 1536.5 M1491.19 1531.54 Q1498.83 1531.54 1503.19 1536.5 Q1507.55 1541.47 1507.55 1550.25 Q1507.55 1559 1503.19 1564 Q1498.83 1568.97 1491.19 1568.97 Q1483.52 1568.97 1479.16 1564 Q1474.83 1559 1474.83 1550.25 Q1474.83 1541.47 1479.16 1536.5 Q1483.52 1531.54 1491.19 1531.54 Z" fill="#000000" fill-rule="nonzero" fill-opacity="1"></path><path clip-path="url(#clip760)" d="M1539.98 1533.45 L1539.98 1538.98 Q1537.5 1537.71 1534.82 1537.07 Q1532.15 1536.44 1529.29 1536.44 Q1524.93 1536.44 1522.73 1537.77 Q1520.56 1539.11 1520.56 1541.79 Q1520.56 1543.82 1522.12 1545 Q1523.68 1546.15 1528.39 1547.2 L1530.4 1547.64 Q1536.64 1548.98 1539.25 1551.43 Q1541.89 1553.85 1541.89 1558.21 Q1541.89 1563.17 1537.94 1566.07 Q1534.03 1568.97 1527.15 1568.97 Q1524.29 1568.97 1521.17 1568.39 Q1518.08 1567.85 1514.64 1566.74 L1514.64 1560.69 Q1517.89 1562.38 1521.04 1563.24 Q1524.19 1564.07 1527.28 1564.07 Q1531.42 1564.07 1533.65 1562.66 Q1535.87 1561.23 1535.87 1558.65 Q1535.87 1556.27 1534.25 1554.99 Q1532.66 1553.72 1527.22 1552.54 L1525.18 1552.07 Q1519.74 1550.92 1517.32 1548.56 Q1514.9 1546.18 1514.9 1542.04 Q1514.9 1537.01 1518.46 1534.27 Q1522.03 1531.54 1528.59 1531.54 Q1531.83 1531.54 1534.7 1532.01 Q1537.56 1532.49 1539.98 1533.45 Z" fill="#000000" fill-rule="nonzero" fill-opacity="1"></path><path clip-path="url(#clip760)" d="M1586 1518.58 Q1581.74 1525.9 1579.67 1533.06 Q1577.6 1540.23 1577.6 1547.58 Q1577.6 1554.93 1579.67 1562.16 Q1581.77 1569.35 1586 1576.64 L1580.91 1576.64 Q1576.14 1569.16 1573.75 1561.93 Q1571.39 1554.71 1571.39 1547.58 Q1571.39 1540.48 1573.75 1533.29 Q1576.11 1526.09 1580.91 1518.58 L1586 1518.58 Z" fill="#000000" fill-rule="nonzero" fill-opacity="1"></path><path clip-path="url(#clip760)" d="M1603.73 1562.63 L1626.17 1562.63 L1626.17 1568.04 L1596 1568.04 L1596 1562.63 Q1599.66 1558.85 1605.96 1552.48 Q1612.29 1546.08 1613.92 1544.24 Q1617.01 1540.77 1618.21 1538.38 Q1619.46 1535.96 1619.46 1533.64 Q1619.46 1529.85 1616.78 1527.46 Q1614.14 1525.08 1609.88 1525.08 Q1606.85 1525.08 1603.48 1526.13 Q1600.14 1527.18 1596.32 1529.31 L1596.32 1522.82 Q1600.2 1521.26 1603.57 1520.46 Q1606.95 1519.66 1609.75 1519.66 Q1617.13 1519.66 1621.52 1523.36 Q1625.92 1527.05 1625.92 1533.22 Q1625.92 1536.15 1624.8 1538.79 Q1623.72 1541.4 1620.82 1544.97 Q1620.03 1545.89 1615.76 1550.32 Q1611.5 1554.71 1603.73 1562.63 Z" fill="#000000" fill-rule="nonzero" fill-opacity="1"></path><path clip-path="url(#clip760)" d="M1663.12 1520.52 L1680.41 1538.25 L1674.01 1538.25 L1660.01 1525.68 L1646 1538.25 L1639.6 1538.25 L1656.89 1520.52 L1663.12 1520.52 Z" fill="#000000" fill-rule="nonzero" fill-opacity="1"></path><path clip-path="url(#clip760)" d="M1723.09 1546.53 L1723.09 1568.04 L1717.23 1568.04 L1717.23 1546.72 Q1717.23 1541.66 1715.26 1539.14 Q1713.29 1536.63 1709.34 1536.63 Q1704.6 1536.63 1701.86 1539.65 Q1699.12 1542.68 1699.12 1547.9 L1699.12 1568.04 L1693.23 1568.04 L1693.23 1532.4 L1699.12 1532.4 L1699.12 1537.93 Q1701.22 1534.72 1704.06 1533.13 Q1706.92 1531.54 1710.64 1531.54 Q1716.79 1531.54 1719.94 1535.36 Q1723.09 1539.14 1723.09 1546.53 Z" fill="#000000" fill-rule="nonzero" fill-opacity="1"></path><path clip-path="url(#clip760)" d="M1733.85 1518.58 L1738.94 1518.58 Q1743.71 1526.09 1746.07 1533.29 Q1748.46 1540.48 1748.46 1547.58 Q1748.46 1554.71 1746.07 1561.93 Q1743.71 1569.16 1738.94 1576.64 L1733.85 1576.64 Q1738.08 1569.35 1740.15 1562.16 Q1742.25 1554.93 1742.25 1547.58 Q1742.25 1540.23 1740.15 1533.06 Q1738.08 1525.9 1733.85 1518.58 Z" fill="#000000" fill-rule="nonzero" fill-opacity="1"></path><polyline clip-path="url(#clip762)" style="stroke:#000000; stroke-linecap:round; stroke-linejoin:round; stroke-width:2; stroke-opacity:0.1; fill:none" points="222.69,1293.51 2352.76,1293.51 "></polyline>
<polyline clip-path="url(#clip762)" style="stroke:#000000; stroke-linecap:round; stroke-linejoin:round; stroke-width:2; stroke-opacity:0.1; fill:none" points="222.69,638.983 2352.76,638.983 "></polyline>
<polyline clip-path="url(#clip760)" style="stroke:#000000; stroke-linecap:round; stroke-linejoin:round; stroke-width:4; stroke-opacity:1; fill:none" points="222.69,1423.18 222.69,47.2441 "></polyline>
<polyline clip-path="url(#clip760)" style="stroke:#000000; stroke-linecap:round; stroke-linejoin:round; stroke-width:4; stroke-opacity:1; fill:none" points="222.69,1293.51 241.588,1293.51 "></polyline>
<polyline clip-path="url(#clip760)" style="stroke:#000000; stroke-linecap:round; stroke-linejoin:round; stroke-width:4; stroke-opacity:1; fill:none" points="222.69,638.983 241.588,638.983 "></polyline>
<path clip-path="url(#clip760)" d="M114.931 1313.31 L122.57 1313.31 L122.57 1286.94 L114.26 1288.61 L114.26 1284.35 L122.524 1282.68 L127.2 1282.68 L127.2 1313.31 L134.839 1313.31 L134.839 1317.24 L114.931 1317.24 L114.931 1313.31 Z" fill="#000000" fill-rule="nonzero" fill-opacity="1"></path><path clip-path="url(#clip760)" d="M154.283 1285.76 Q150.672 1285.76 148.843 1289.32 Q147.038 1292.87 147.038 1300 Q147.038 1307.1 148.843 1310.67 Q150.672 1314.21 154.283 1314.21 Q157.917 1314.21 159.723 1310.67 Q161.552 1307.1 161.552 1300 Q161.552 1292.87 159.723 1289.32 Q157.917 1285.76 154.283 1285.76 M154.283 1282.06 Q160.093 1282.06 163.149 1286.66 Q166.227 1291.25 166.227 1300 Q166.227 1308.72 163.149 1313.33 Q160.093 1317.91 154.283 1317.91 Q148.473 1317.91 145.394 1313.33 Q142.339 1308.72 142.339 1300 Q142.339 1291.25 145.394 1286.66 Q148.473 1282.06 154.283 1282.06 Z" fill="#000000" fill-rule="nonzero" fill-opacity="1"></path><path clip-path="url(#clip760)" d="M178.904 1265.06 L169.312 1280.05 L178.904 1280.05 L178.904 1265.06 M177.907 1261.75 L182.684 1261.75 L182.684 1280.05 L186.69 1280.05 L186.69 1283.21 L182.684 1283.21 L182.684 1289.83 L178.904 1289.83 L178.904 1283.21 L166.227 1283.21 L166.227 1279.54 L177.907 1261.75 Z" fill="#000000" fill-rule="nonzero" fill-opacity="1"></path><path clip-path="url(#clip760)" d="M116.003 658.776 L123.642 658.776 L123.642 632.41 L115.332 634.077 L115.332 629.818 L123.596 628.151 L128.272 628.151 L128.272 658.776 L135.911 658.776 L135.911 662.711 L116.003 662.711 L116.003 658.776 Z" fill="#000000" fill-rule="nonzero" fill-opacity="1"></path><path clip-path="url(#clip760)" d="M155.355 631.23 Q151.744 631.23 149.915 634.794 Q148.11 638.336 148.11 645.466 Q148.11 652.572 149.915 656.137 Q151.744 659.679 155.355 659.679 Q158.989 659.679 160.795 656.137 Q162.624 652.572 162.624 645.466 Q162.624 638.336 160.795 634.794 Q158.989 631.23 155.355 631.23 M155.355 627.526 Q161.165 627.526 164.221 632.132 Q167.3 636.716 167.3 645.466 Q167.3 654.192 164.221 658.799 Q161.165 663.382 155.355 663.382 Q149.545 663.382 146.466 658.799 Q143.411 654.192 143.411 645.466 Q143.411 636.716 146.466 632.132 Q149.545 627.526 155.355 627.526 Z" fill="#000000" fill-rule="nonzero" fill-opacity="1"></path><path clip-path="url(#clip760)" d="M177.324 619.747 Q174.766 619.747 173.262 621.496 Q171.776 623.245 171.776 626.292 Q171.776 629.32 173.262 631.088 Q174.766 632.837 177.324 632.837 Q179.882 632.837 181.368 631.088 Q182.872 629.32 182.872 626.292 Q182.872 623.245 181.368 621.496 Q179.882 619.747 177.324 619.747 M184.866 607.841 L184.866 611.302 Q183.437 610.625 181.97 610.267 Q180.521 609.91 179.092 609.91 Q175.33 609.91 173.337 612.449 Q171.362 614.988 171.08 620.123 Q172.19 618.486 173.863 617.621 Q175.537 616.737 177.55 616.737 Q181.781 616.737 184.227 619.314 Q186.69 621.872 186.69 626.292 Q186.69 630.617 184.132 633.232 Q181.575 635.846 177.324 635.846 Q172.453 635.846 169.876 632.122 Q167.3 628.379 167.3 621.289 Q167.3 614.631 170.459 610.681 Q173.619 606.713 178.942 606.713 Q180.371 606.713 181.819 606.995 Q183.286 607.277 184.866 607.841 Z" fill="#000000" fill-rule="nonzero" fill-opacity="1"></path><path clip-path="url(#clip760)" d="M16.4842 1128.42 L16.4842 1088.22 L21.895 1088.22 L21.895 1105.09 L64.0042 1105.09 L64.0042 1111.55 L21.895 1111.55 L21.895 1128.42 L16.4842 1128.42 Z" fill="#000000" fill-rule="nonzero" fill-opacity="1"></path><path clip-path="url(#clip760)" d="M44.7161 1062.85 L47.5806 1062.85 L47.5806 1089.78 Q53.6281 1089.4 56.8109 1086.15 Q59.9619 1082.88 59.9619 1077.05 Q59.9619 1073.68 59.1344 1070.53 Q58.3069 1067.34 56.6518 1064.22 L62.1899 1064.22 Q63.5267 1067.37 64.227 1070.68 Q64.9272 1073.99 64.9272 1077.4 Q64.9272 1085.93 59.9619 1090.93 Q54.9967 1095.89 46.5303 1095.89 Q37.7774 1095.89 32.6531 1091.18 Q27.4968 1086.44 27.4968 1078.42 Q27.4968 1071.23 32.1438 1067.06 Q36.7589 1062.85 44.7161 1062.85 M42.9973 1068.71 Q38.1912 1068.77 35.3266 1071.42 Q32.4621 1074.03 32.4621 1078.36 Q32.4621 1083.26 35.2312 1086.22 Q38.0002 1089.15 43.0292 1089.59 L42.9973 1068.71 Z" fill="#000000" fill-rule="nonzero" fill-opacity="1"></path><path clip-path="url(#clip760)" d="M35.1993 1025.49 Q31.2526 1023.29 29.3747 1020.24 Q27.4968 1017.18 27.4968 1013.04 Q27.4968 1007.47 31.4117 1004.45 Q35.2948 1001.43 42.4881 1001.43 L64.0042 1001.43 L64.0042 1007.31 L42.679 1007.31 Q37.5546 1007.31 35.072 1009.13 Q32.5894 1010.94 32.5894 1014.67 Q32.5894 1019.22 35.6131 1021.86 Q38.6368 1024.5 43.8567 1024.5 L64.0042 1024.5 L64.0042 1030.39 L42.679 1030.39 Q37.5228 1030.39 35.072 1032.2 Q32.5894 1034.02 32.5894 1037.81 Q32.5894 1042.29 35.6449 1044.94 Q38.6686 1047.58 43.8567 1047.58 L64.0042 1047.58 L64.0042 1053.47 L28.3562 1053.47 L28.3562 1047.58 L33.8944 1047.58 Q30.616 1045.57 29.0564 1042.77 Q27.4968 1039.97 27.4968 1036.12 Q27.4968 1032.24 29.4702 1029.53 Q31.4436 1026.79 35.1993 1025.49 Z" fill="#000000" fill-rule="nonzero" fill-opacity="1"></path><path clip-path="url(#clip760)" d="M58.657 984.079 L77.5631 984.079 L77.5631 989.968 L28.3562 989.968 L28.3562 984.079 L33.7671 984.079 Q30.5842 982.233 29.0564 979.432 Q27.4968 976.6 27.4968 972.685 Q27.4968 966.192 32.6531 962.149 Q37.8093 958.075 46.212 958.075 Q54.6147 958.075 59.771 962.149 Q64.9272 966.192 64.9272 972.685 Q64.9272 976.6 63.3994 979.432 Q61.8398 982.233 58.657 984.079 M46.212 964.155 Q39.7508 964.155 36.0905 966.828 Q32.3984 969.47 32.3984 974.117 Q32.3984 978.764 36.0905 981.438 Q39.7508 984.079 46.212 984.079 Q52.6732 984.079 56.3653 981.438 Q60.0256 978.764 60.0256 974.117 Q60.0256 969.47 56.3653 966.828 Q52.6732 964.155 46.212 964.155 Z" fill="#000000" fill-rule="nonzero" fill-opacity="1"></path><path clip-path="url(#clip760)" d="M32.4621 934.554 Q32.4621 939.265 36.1542 942.002 Q39.8145 944.739 46.212 944.739 Q52.6095 944.739 56.3017 942.034 Q59.9619 939.297 59.9619 934.554 Q59.9619 929.875 56.2698 927.138 Q52.5777 924.401 46.212 924.401 Q39.8781 924.401 36.186 927.138 Q32.4621 929.875 32.4621 934.554 M27.4968 934.554 Q27.4968 926.915 32.4621 922.555 Q37.4273 918.194 46.212 918.194 Q54.9649 918.194 59.9619 922.555 Q64.9272 926.915 64.9272 934.554 Q64.9272 942.225 59.9619 946.585 Q54.9649 950.914 46.212 950.914 Q37.4273 950.914 32.4621 946.585 Q27.4968 942.225 27.4968 934.554 Z" fill="#000000" fill-rule="nonzero" fill-opacity="1"></path><path clip-path="url(#clip760)" d="M33.7671 864.308 L14.479 864.308 L14.479 858.452 L64.0042 858.452 L64.0042 864.308 L58.657 864.308 Q61.8398 866.155 63.3994 868.987 Q64.9272 871.788 64.9272 875.735 Q64.9272 882.196 59.771 886.27 Q54.6147 890.312 46.212 890.312 Q37.8093 890.312 32.6531 886.27 Q27.4968 882.196 27.4968 875.735 Q27.4968 871.788 29.0564 868.987 Q30.5842 866.155 33.7671 864.308 M46.212 884.265 Q52.6732 884.265 56.3653 881.623 Q60.0256 878.95 60.0256 874.303 Q60.0256 869.656 56.3653 866.982 Q52.6732 864.308 46.212 864.308 Q39.7508 864.308 36.0905 866.982 Q32.3984 869.656 32.3984 874.303 Q32.3984 878.95 36.0905 881.623 Q39.7508 884.265 46.212 884.265 Z" fill="#000000" fill-rule="nonzero" fill-opacity="1"></path><path clip-path="url(#clip760)" d="M44.7161 815.897 L47.5806 815.897 L47.5806 842.824 Q53.6281 842.442 56.8109 839.196 Q59.9619 835.917 59.9619 830.093 Q59.9619 826.719 59.1344 823.568 Q58.3069 820.385 56.6518 817.266 L62.1899 817.266 Q63.5267 820.417 64.227 823.727 Q64.9272 827.037 64.9272 830.443 Q64.9272 838.973 59.9619 843.97 Q54.9967 848.935 46.5303 848.935 Q37.7774 848.935 32.6531 844.225 Q27.4968 839.482 27.4968 831.461 Q27.4968 824.268 32.1438 820.099 Q36.7589 815.897 44.7161 815.897 M42.9973 821.754 Q38.1912 821.817 35.3266 824.459 Q32.4621 827.069 32.4621 831.398 Q32.4621 836.299 35.2312 839.259 Q38.0002 842.188 43.0292 842.633 L42.9973 821.754 Z" fill="#000000" fill-rule="nonzero" fill-opacity="1"></path><path clip-path="url(#clip760)" d="M44.7161 755.073 L47.5806 755.073 L47.5806 782 Q53.6281 781.618 56.8109 778.371 Q59.9619 775.093 59.9619 769.268 Q59.9619 765.895 59.1344 762.744 Q58.3069 759.561 56.6518 756.442 L62.1899 756.442 Q63.5267 759.593 64.227 762.903 Q64.9272 766.213 64.9272 769.619 Q64.9272 778.149 59.9619 783.146 Q54.9967 788.111 46.5303 788.111 Q37.7774 788.111 32.6531 783.4 Q27.4968 778.658 27.4968 770.637 Q27.4968 763.444 32.1438 759.274 Q36.7589 755.073 44.7161 755.073 M42.9973 760.929 Q38.1912 760.993 35.3266 763.635 Q32.4621 766.245 32.4621 770.573 Q32.4621 775.475 35.2312 778.435 Q38.0002 781.363 43.0292 781.809 L42.9973 760.929 Z" fill="#000000" fill-rule="nonzero" fill-opacity="1"></path><path clip-path="url(#clip760)" d="M28.3562 716.974 L45.7028 729.865 L64.0042 716.306 L64.0042 723.213 L49.9996 733.589 L64.0042 743.965 L64.0042 750.872 L45.3526 737.026 L28.3562 749.694 L28.3562 742.787 L41.0558 733.334 L28.3562 723.881 L28.3562 716.974 Z" fill="#000000" fill-rule="nonzero" fill-opacity="1"></path><path clip-path="url(#clip760)" d="M44.7161 679.544 L47.5806 679.544 L47.5806 706.471 Q53.6281 706.089 56.8109 702.842 Q59.9619 699.564 59.9619 693.739 Q59.9619 690.366 59.1344 687.215 Q58.3069 684.032 56.6518 680.912 L62.1899 680.912 Q63.5267 684.064 64.227 687.374 Q64.9272 690.684 64.9272 694.09 Q64.9272 702.62 59.9619 707.617 Q54.9967 712.582 46.5303 712.582 Q37.7774 712.582 32.6531 707.871 Q27.4968 703.129 27.4968 695.108 Q27.4968 687.915 32.1438 683.745 Q36.7589 679.544 44.7161 679.544 M42.9973 685.4 Q38.1912 685.464 35.3266 688.106 Q32.4621 690.716 32.4621 695.044 Q32.4621 699.946 35.2312 702.906 Q38.0002 705.834 43.0292 706.28 L42.9973 685.4 Z" fill="#000000" fill-rule="nonzero" fill-opacity="1"></path><path clip-path="url(#clip760)" d="M29.7248 644.278 L35.1993 644.278 Q33.8307 646.76 33.1623 649.275 Q32.4621 651.758 32.4621 654.304 Q32.4621 660.001 36.0905 663.152 Q39.6872 666.303 46.212 666.303 Q52.7369 666.303 56.3653 663.152 Q59.9619 660.001 59.9619 654.304 Q59.9619 651.758 59.2935 649.275 Q58.5933 646.76 57.2247 644.278 L62.6355 644.278 Q63.7814 646.729 64.3543 649.37 Q64.9272 651.98 64.9272 654.94 Q64.9272 662.993 59.8664 667.735 Q54.8057 672.478 46.212 672.478 Q37.491 672.478 32.4939 667.704 Q27.4968 662.898 27.4968 654.558 Q27.4968 651.853 28.0697 649.275 Q28.6108 646.697 29.7248 644.278 Z" fill="#000000" fill-rule="nonzero" fill-opacity="1"></path><path clip-path="url(#clip760)" d="M49.9359 634.697 L28.3562 634.697 L28.3562 628.841 L49.7131 628.841 Q54.7739 628.841 57.3202 626.868 Q59.8346 624.894 59.8346 620.948 Q59.8346 616.205 56.8109 613.468 Q53.7872 610.699 48.5673 610.699 L28.3562 610.699 L28.3562 604.842 L64.0042 604.842 L64.0042 610.699 L58.5296 610.699 Q61.7762 612.831 63.3676 615.664 Q64.9272 618.465 64.9272 622.189 Q64.9272 628.332 61.1078 631.515 Q57.2883 634.697 49.9359 634.697 M27.4968 619.961 L27.4968 619.961 Z" fill="#000000" fill-rule="nonzero" fill-opacity="1"></path><path clip-path="url(#clip760)" d="M29.7248 567.125 L35.1993 567.125 Q33.8307 569.608 33.1623 572.123 Q32.4621 574.605 32.4621 577.151 Q32.4621 582.849 36.0905 586 Q39.6872 589.151 46.212 589.151 Q52.7369 589.151 56.3653 586 Q59.9619 582.849 59.9619 577.151 Q59.9619 574.605 59.2935 572.123 Q58.5933 569.608 57.2247 567.125 L62.6355 567.125 Q63.7814 569.576 64.3543 572.218 Q64.9272 574.828 64.9272 577.788 Q64.9272 585.841 59.8664 590.583 Q54.8057 595.326 46.212 595.326 Q37.491 595.326 32.4939 590.551 Q27.4968 585.745 27.4968 577.406 Q27.4968 574.701 28.0697 572.123 Q28.6108 569.544 29.7248 567.125 M64.0042 575.401 Q65.9775 573.65 67.6326 572.791 Q69.3195 571.932 70.8473 571.932 Q73.68 571.932 75.1123 573.841 Q76.5764 575.751 76.5764 579.507 Q76.5764 580.971 76.3855 582.371 Q76.1945 583.74 75.8125 585.109 L71.643 585.109 Q72.1841 584.026 72.4069 582.849 Q72.6615 581.671 72.6615 580.175 Q72.6615 578.297 71.8976 577.342 Q71.1337 576.388 69.6696 576.388 Q68.7148 576.388 67.3143 577.088 Q65.9457 577.756 64.0042 579.188 L64.0042 575.401 Z" fill="#000000" fill-rule="nonzero" fill-opacity="1"></path><path clip-path="url(#clip760)" d="M46.0847 540.74 Q46.0847 547.837 47.7079 550.575 Q49.3312 553.312 53.2461 553.312 Q56.3653 553.312 58.2114 551.275 Q60.0256 549.206 60.0256 545.673 Q60.0256 540.803 56.5881 537.875 Q53.1188 534.915 47.3897 534.915 L46.0847 534.915 L46.0847 540.74 M43.6657 529.059 L64.0042 529.059 L64.0042 534.915 L58.5933 534.915 Q61.8398 536.92 63.3994 539.912 Q64.9272 542.904 64.9272 547.233 Q64.9272 552.707 61.8716 555.954 Q58.7843 559.168 53.6281 559.168 Q47.6125 559.168 44.5569 555.158 Q41.5014 551.116 41.5014 543.127 L41.5014 534.915 L40.9285 534.915 Q36.8862 534.915 34.6901 537.589 Q32.4621 540.23 32.4621 545.036 Q32.4621 548.092 33.1941 550.988 Q33.9262 553.885 35.3903 556.558 L29.9795 556.558 Q28.7381 553.344 28.1334 550.32 Q27.4968 547.296 27.4968 544.432 Q27.4968 536.697 31.5072 532.878 Q35.5176 529.059 43.6657 529.059 M20.3991 544.304 L18.6485 546.119 Q18.0119 546.819 17.7255 547.36 Q17.4072 547.869 17.4072 548.283 Q17.4072 549.492 18.5848 550.065 Q19.7307 550.638 22.3406 550.702 L22.3406 554.681 Q18.0438 554.617 15.7203 552.994 Q13.365 551.37 13.365 548.474 Q13.365 547.264 13.8106 546.246 Q14.2562 545.227 15.3065 544.05 L17.0571 542.236 Q17.6936 541.535 18.0119 541.026 Q18.2984 540.485 18.2984 540.071 Q18.2984 538.862 17.1526 538.289 Q15.9749 537.716 13.365 537.652 L13.365 533.674 Q17.6618 533.737 20.0171 535.361 Q22.3406 536.984 22.3406 539.88 Q22.3406 541.09 21.895 542.108 Q21.4494 543.127 20.3991 544.304 Z" fill="#000000" fill-rule="nonzero" fill-opacity="1"></path><path clip-path="url(#clip760)" d="M32.4621 503.182 Q32.4621 507.893 36.1542 510.63 Q39.8145 513.367 46.212 513.367 Q52.6095 513.367 56.3017 510.662 Q59.9619 507.924 59.9619 503.182 Q59.9619 498.503 56.2698 495.766 Q52.5777 493.029 46.212 493.029 Q39.8781 493.029 36.186 495.766 Q32.4621 498.503 32.4621 503.182 M27.4968 503.182 Q27.4968 495.543 32.4621 491.183 Q37.4273 486.822 46.212 486.822 Q54.9649 486.822 59.9619 491.183 Q64.9272 495.543 64.9272 503.182 Q64.9272 510.853 59.9619 515.213 Q54.9649 519.542 46.212 519.542 Q37.4273 519.542 32.4621 515.213 Q27.4968 510.853 27.4968 503.182 Z" fill="#000000" fill-rule="nonzero" fill-opacity="1"></path><path clip-path="url(#clip760)" d="M14.5426 442.326 Q21.8632 446.591 29.0246 448.66 Q36.186 450.729 43.5384 450.729 Q50.8908 450.729 58.1159 448.66 Q65.3091 446.559 72.5979 442.326 L72.5979 447.418 Q65.1182 452.193 57.8931 454.58 Q50.668 456.935 43.5384 456.935 Q36.4406 456.935 29.2474 454.58 Q22.0542 452.224 14.5426 447.418 L14.5426 442.326 Z" fill="#000000" fill-rule="nonzero" fill-opacity="1"></path><path clip-path="url(#clip760)" d="M42.4881 401.331 L64.0042 401.331 L64.0042 407.187 L42.679 407.187 Q37.6183 407.187 35.1038 409.16 Q32.5894 411.134 32.5894 415.081 Q32.5894 419.823 35.6131 422.56 Q38.6368 425.298 43.8567 425.298 L64.0042 425.298 L64.0042 431.186 L28.3562 431.186 L28.3562 425.298 L33.8944 425.298 Q30.6797 423.197 29.0883 420.364 Q27.4968 417.5 27.4968 413.776 Q27.4968 407.633 31.3163 404.482 Q35.1038 401.331 42.4881 401.331 Z" fill="#000000" fill-rule="nonzero" fill-opacity="1"></path><path clip-path="url(#clip760)" d="M29.4065 366.924 L34.9447 366.924 Q33.6716 369.407 33.035 372.08 Q32.3984 374.754 32.3984 377.618 Q32.3984 381.979 33.7352 384.175 Q35.072 386.339 37.7456 386.339 Q39.7826 386.339 40.9603 384.78 Q42.1061 383.22 43.1565 378.51 L43.6021 376.504 Q44.9389 370.266 47.3897 367.656 Q49.8086 365.014 54.1691 365.014 Q59.1344 365.014 62.0308 368.961 Q64.9272 372.876 64.9272 379.751 Q64.9272 382.615 64.3543 385.735 Q63.8132 388.822 62.6992 392.26 L56.6518 392.26 Q58.3387 389.013 59.198 385.862 Q60.0256 382.711 60.0256 379.624 Q60.0256 375.486 58.6251 373.258 Q57.1929 371.03 54.6147 371.03 Q52.2276 371.03 50.9545 372.653 Q49.6813 374.245 48.5037 379.687 L48.0262 381.724 Q46.8804 387.167 44.5251 389.586 Q42.138 392.005 38.0002 392.005 Q32.9713 392.005 30.2341 388.44 Q27.4968 384.875 27.4968 378.319 Q27.4968 375.072 27.9743 372.208 Q28.4517 369.343 29.4065 366.924 Z" fill="#000000" fill-rule="nonzero" fill-opacity="1"></path><path clip-path="url(#clip760)" d="M14.5426 356.612 L14.5426 351.519 Q22.0542 346.745 29.2474 344.389 Q36.4406 342.002 43.5384 342.002 Q50.668 342.002 57.8931 344.389 Q65.1182 346.745 72.5979 351.519 L72.5979 356.612 Q65.3091 352.378 58.1159 350.31 Q50.8908 348.209 43.5384 348.209 Q36.186 348.209 29.0246 350.31 Q21.8632 352.378 14.5426 356.612 Z" fill="#000000" fill-rule="nonzero" fill-opacity="1"></path><polyline clip-path="url(#clip762)" style="stroke:#009af9; stroke-linecap:round; stroke-linejoin:round; stroke-width:4; stroke-opacity:1; fill:none" points="282.975,1299.54 394.614,1296.25 506.253,1295.23 617.891,1278.85 729.53,1257.07 841.168,1244.91 952.807,1196.22 1064.45,1151.1 1176.08,1076.12 1287.72,1022.04 1399.36,894.568 1511,804.389 1622.64,735.145 1734.28,631.323 1845.92,503.685 1957.56,384.437 2069.19,282.269 2180.83,180.138 2292.47,86.1857 "></polyline>
<polyline clip-path="url(#clip762)" style="stroke:#e26f46; stroke-linecap:round; stroke-linejoin:round; stroke-width:4; stroke-opacity:1; fill:none" points="282.975,1377.74 394.614,1384.24 506.253,1368.81 617.891,1360.61 729.53,1338.99 841.168,1228.61 952.807,1175.04 1064.45,1167.42 1176.08,1110.15 1287.72,1031.81 1399.36,965.051 1511,857.892 1622.64,764.13 1734.28,631.596 1845.92,515.985 1957.56,395.26 2069.19,294.243 2180.83,200.964 2292.47,90.1512 "></polyline>
<path clip-path="url(#clip760)" d="M293.693 248.629 L682.277 248.629 L682.277 93.1086 L293.693 93.1086  Z" fill="#ffffff" fill-rule="evenodd" fill-opacity="1"></path>
<polyline clip-path="url(#clip760)" style="stroke:#000000; stroke-linecap:round; stroke-linejoin:round; stroke-width:4; stroke-opacity:1; fill:none" points="293.693,248.629 682.277,248.629 682.277,93.1086 293.693,93.1086 293.693,248.629 "></polyline>
<polyline clip-path="url(#clip760)" style="stroke:#009af9; stroke-linecap:round; stroke-linejoin:round; stroke-width:4; stroke-opacity:1; fill:none" points="317.36,144.949 459.364,144.949 "></polyline>
<path clip-path="url(#clip760)" d="M505.277 128.803 L505.277 133.363 Q502.615 132.09 500.254 131.465 Q497.893 130.84 495.694 130.84 Q491.874 130.84 489.791 132.321 Q487.731 133.803 487.731 136.534 Q487.731 138.826 489.096 140.007 Q490.485 141.164 494.328 141.882 L497.152 142.46 Q502.383 143.456 504.86 145.979 Q507.36 148.479 507.36 152.692 Q507.36 157.715 503.981 160.307 Q500.624 162.9 494.12 162.9 Q491.666 162.9 488.888 162.344 Q486.134 161.789 483.171 160.701 L483.171 155.886 Q486.018 157.483 488.749 158.293 Q491.481 159.104 494.12 159.104 Q498.124 159.104 500.3 157.53 Q502.476 155.956 502.476 153.039 Q502.476 150.493 500.902 149.057 Q499.351 147.622 495.786 146.905 L492.939 146.349 Q487.708 145.307 485.37 143.085 Q483.032 140.863 483.032 136.905 Q483.032 132.321 486.249 129.682 Q489.49 127.044 495.161 127.044 Q497.592 127.044 500.115 127.483 Q502.638 127.923 505.277 128.803 Z" fill="#000000" fill-rule="nonzero" fill-opacity="1"></path><path clip-path="url(#clip760)" d="M536.642 148.201 L536.642 150.284 L517.059 150.284 Q517.337 154.682 519.698 156.997 Q522.082 159.289 526.318 159.289 Q528.772 159.289 531.064 158.687 Q533.379 158.085 535.647 156.881 L535.647 160.909 Q533.355 161.881 530.948 162.391 Q528.541 162.9 526.064 162.9 Q519.86 162.9 516.226 159.289 Q512.615 155.678 512.615 149.52 Q512.615 143.155 516.041 139.428 Q519.49 135.678 525.323 135.678 Q530.555 135.678 533.587 139.057 Q536.642 142.414 536.642 148.201 M532.383 146.951 Q532.337 143.456 530.416 141.372 Q528.518 139.289 525.369 139.289 Q521.805 139.289 519.652 141.303 Q517.522 143.317 517.198 146.974 L532.383 146.951 Z" fill="#000000" fill-rule="nonzero" fill-opacity="1"></path><path clip-path="url(#clip760)" d="M558.656 140.284 Q557.939 139.868 557.082 139.682 Q556.249 139.474 555.23 139.474 Q551.619 139.474 549.675 141.835 Q547.754 144.173 547.754 148.571 L547.754 162.229 L543.471 162.229 L543.471 136.303 L547.754 136.303 L547.754 140.331 Q549.096 137.969 551.249 136.835 Q553.402 135.678 556.48 135.678 Q556.92 135.678 557.453 135.747 Q557.985 135.794 558.633 135.909 L558.656 140.284 Z" fill="#000000" fill-rule="nonzero" fill-opacity="1"></path><path clip-path="url(#clip760)" d="M563.124 136.303 L567.383 136.303 L567.383 162.229 L563.124 162.229 L563.124 136.303 M563.124 126.21 L567.383 126.21 L567.383 131.604 L563.124 131.604 L563.124 126.21 Z" fill="#000000" fill-rule="nonzero" fill-opacity="1"></path><path clip-path="url(#clip760)" d="M588.077 149.196 Q582.915 149.196 580.925 150.377 Q578.934 151.557 578.934 154.405 Q578.934 156.673 580.415 158.016 Q581.92 159.335 584.489 159.335 Q588.031 159.335 590.161 156.835 Q592.313 154.312 592.313 150.145 L592.313 149.196 L588.077 149.196 M596.573 147.437 L596.573 162.229 L592.313 162.229 L592.313 158.293 Q590.855 160.655 588.679 161.789 Q586.503 162.9 583.355 162.9 Q579.374 162.9 577.013 160.678 Q574.675 158.432 574.675 154.682 Q574.675 150.307 577.591 148.085 Q580.531 145.863 586.341 145.863 L592.313 145.863 L592.313 145.446 Q592.313 142.507 590.369 140.909 Q588.448 139.289 584.952 139.289 Q582.73 139.289 580.624 139.821 Q578.517 140.354 576.573 141.419 L576.573 137.483 Q578.911 136.581 581.11 136.141 Q583.309 135.678 585.392 135.678 Q591.017 135.678 593.795 138.594 Q596.573 141.511 596.573 147.437 Z" fill="#000000" fill-rule="nonzero" fill-opacity="1"></path><path clip-path="url(#clip760)" d="M605.346 126.21 L609.605 126.21 L609.605 162.229 L605.346 162.229 L605.346 126.21 Z" fill="#000000" fill-rule="nonzero" fill-opacity="1"></path><polyline clip-path="url(#clip760)" style="stroke:#e26f46; stroke-linecap:round; stroke-linejoin:round; stroke-width:4; stroke-opacity:1; fill:none" points="317.36,196.789 459.364,196.789 "></polyline>
<path clip-path="url(#clip760)" d="M496.226 214.069 L483.032 179.509 L487.916 179.509 L498.865 208.606 L509.837 179.509 L514.698 179.509 L501.527 214.069 L496.226 214.069 Z" fill="#000000" fill-rule="nonzero" fill-opacity="1"></path><path clip-path="url(#clip760)" d="M538.055 200.041 L538.055 202.124 L518.471 202.124 Q518.749 206.522 521.11 208.837 Q523.494 211.129 527.731 211.129 Q530.184 211.129 532.476 210.527 Q534.791 209.925 537.059 208.721 L537.059 212.749 Q534.768 213.721 532.36 214.231 Q529.953 214.74 527.476 214.74 Q521.272 214.74 517.638 211.129 Q514.027 207.518 514.027 201.36 Q514.027 194.995 517.453 191.268 Q520.902 187.518 526.735 187.518 Q531.967 187.518 534.999 190.897 Q538.055 194.254 538.055 200.041 M533.795 198.791 Q533.749 195.296 531.828 193.212 Q529.93 191.129 526.781 191.129 Q523.217 191.129 521.064 193.143 Q518.934 195.157 518.61 198.814 L533.795 198.791 Z" fill="#000000" fill-rule="nonzero" fill-opacity="1"></path><path clip-path="url(#clip760)" d="M549.258 180.782 L549.258 188.143 L558.031 188.143 L558.031 191.453 L549.258 191.453 L549.258 205.527 Q549.258 208.698 550.115 209.601 Q550.994 210.504 553.656 210.504 L558.031 210.504 L558.031 214.069 L553.656 214.069 Q548.726 214.069 546.851 212.24 Q544.976 210.388 544.976 205.527 L544.976 191.453 L541.851 191.453 L541.851 188.143 L544.976 188.143 L544.976 180.782 L549.258 180.782 Z" fill="#000000" fill-rule="nonzero" fill-opacity="1"></path><path clip-path="url(#clip760)" d="M573.679 191.129 Q570.253 191.129 568.263 193.814 Q566.272 196.476 566.272 201.129 Q566.272 205.782 568.24 208.467 Q570.23 211.129 573.679 211.129 Q577.082 211.129 579.073 208.444 Q581.064 205.758 581.064 201.129 Q581.064 196.522 579.073 193.837 Q577.082 191.129 573.679 191.129 M573.679 187.518 Q579.235 187.518 582.406 191.129 Q585.577 194.74 585.577 201.129 Q585.577 207.495 582.406 211.129 Q579.235 214.74 573.679 214.74 Q568.101 214.74 564.929 211.129 Q561.781 207.495 561.781 201.129 Q561.781 194.74 564.929 191.129 Q568.101 187.518 573.679 187.518 Z" fill="#000000" fill-rule="nonzero" fill-opacity="1"></path><path clip-path="url(#clip760)" d="M607.661 192.124 Q606.943 191.708 606.087 191.522 Q605.253 191.314 604.235 191.314 Q600.624 191.314 598.679 193.675 Q596.758 196.013 596.758 200.411 L596.758 214.069 L592.476 214.069 L592.476 188.143 L596.758 188.143 L596.758 192.171 Q598.101 189.809 600.253 188.675 Q602.406 187.518 605.485 187.518 Q605.925 187.518 606.457 187.587 Q606.989 187.634 607.637 187.749 L607.661 192.124 Z" fill="#000000" fill-rule="nonzero" fill-opacity="1"></path><path clip-path="url(#clip760)" d="M612.128 188.143 L616.387 188.143 L616.387 214.069 L612.128 214.069 L612.128 188.143 M612.128 178.05 L616.387 178.05 L616.387 183.444 L612.128 183.444 L612.128 178.05 Z" fill="#000000" fill-rule="nonzero" fill-opacity="1"></path><path clip-path="url(#clip760)" d="M637.082 201.036 Q631.92 201.036 629.929 202.217 Q627.938 203.397 627.938 206.245 Q627.938 208.513 629.42 209.856 Q630.924 211.175 633.494 211.175 Q637.035 211.175 639.165 208.675 Q641.318 206.152 641.318 201.985 L641.318 201.036 L637.082 201.036 M645.577 199.277 L645.577 214.069 L641.318 214.069 L641.318 210.133 Q639.86 212.495 637.684 213.629 Q635.508 214.74 632.36 214.74 Q628.378 214.74 626.017 212.518 Q623.679 210.272 623.679 206.522 Q623.679 202.147 626.596 199.925 Q629.536 197.703 635.346 197.703 L641.318 197.703 L641.318 197.286 Q641.318 194.347 639.373 192.749 Q637.452 191.129 633.957 191.129 Q631.735 191.129 629.628 191.661 Q627.522 192.194 625.577 193.259 L625.577 189.323 Q627.915 188.421 630.114 187.981 Q632.313 187.518 634.397 187.518 Q640.022 187.518 642.799 190.434 Q645.577 193.351 645.577 199.277 Z" fill="#000000" fill-rule="nonzero" fill-opacity="1"></path><path clip-path="url(#clip760)" d="M654.35 178.05 L658.609 178.05 L658.609 214.069 L654.35 214.069 L654.35 178.05 Z" fill="#000000" fill-rule="nonzero" fill-opacity="1"></path></svg>